<?xml version="1.0" encoding="UTF-8" standalone="no"?>
<!-- Created with Inkscape (http://www.inkscape.org/) -->

<svg
   xmlns:dc="http://purl.org/dc/elements/1.1/"
   xmlns:cc="http://creativecommons.org/ns#"
   xmlns:rdf="http://www.w3.org/1999/02/22-rdf-syntax-ns#"
   xmlns:svg="http://www.w3.org/2000/svg"
   xmlns="http://www.w3.org/2000/svg"
   xmlns:sodipodi="http://sodipodi.sourceforge.net/DTD/sodipodi-0.dtd"
   xmlns:inkscape="http://www.inkscape.org/namespaces/inkscape"
   width="910"
   height="700"
   viewBox="0 0 909.99998 700.00001"
   id="svg4196"
   version="1.1"
   inkscape:version="0.91 r13725"
   sodipodi:docname="BT_null1.svg">
  <defs
     id="defs4198" />
  <sodipodi:namedview
     id="base"
     pagecolor="#ffffff"
     bordercolor="#666666"
     borderopacity="1.0"
     inkscape:pageopacity="0.0"
     inkscape:pageshadow="2"
     inkscape:zoom="0.70786767"
     inkscape:cx="705.92745"
     inkscape:cy="216.92262"
     inkscape:document-units="px"
     inkscape:current-layer="layer1"
     showgrid="false"
     units="px"
     inkscape:window-width="1920"
     inkscape:window-height="1017"
     inkscape:window-x="-8"
     inkscape:window-y="-8"
     inkscape:window-maximized="1" />
  <metadata
     id="metadata4201">
    <rdf:RDF>
      <cc:Work
         rdf:about="">
        <dc:format>image/svg+xml</dc:format>
        <dc:type
           rdf:resource="http://purl.org/dc/dcmitype/StillImage" />
        <dc:title></dc:title>
      </cc:Work>
    </rdf:RDF>
  </metadata>
  <g
     inkscape:groupmode="layer"
     id="layer2"
     inkscape:label="Layer 2"
     style="display:inline"
     sodipodi:insensitive="true">
    <circle
       transform="translate(7.5000122,-354.36219)"
       r="293"
       cy="661.96423"
       cx="298.29999"
       id="path4151"
       style="display:inline;opacity:1;fill:#818181;fill-opacity:1;stroke:#ffffff;stroke-width:10;stroke-miterlimit:4;stroke-dasharray:none;stroke-dashoffset:0;stroke-opacity:1" />
  </g>
  <g
     inkscape:label="Layer 1"
     inkscape:groupmode="layer"
     id="layer1"
     transform="translate(0,-352.36216)"
     style="display:inline">
    <g
       id="g4802"
       transform="translate(7.5000122,-2.0000333)">
      <path
         sodipodi:nodetypes="zcccccccscccccscccsccz"
         inkscape:connector-curvature="0"
         id="path4171"
         d="m 347.79239,884.22977 c -20.7545,-8.8166 -71.5475,-32.6482 -105.4305,-44.87914 -10.22068,-3.08688 -26.08941,-1.63503 -36.44866,10.48172 -3.03479,8.93222 -3.93494,19.01712 2.26003,26.14092 44.30373,34.4924 93.64533,44.7427 142.91213,67.6869 43.4094,19.3862 91.0841,37.0331 125.7418,53.4486 9.5,5.00003 15.6025,6.24183 19.1208,11.74183 0.9345,7.9942 -52.5257,16.603 -60.793,19.2417 -10.1044,1.7235 -6.3278,4.0165 2.1722,8.0165 8.5,4 32.3478,10.4139 44.8478,10.4139 21.0441,1.2136 34.7265,-3.6257 48.9287,-7.3113 20.8817,-7.7824 29.9523,-8.2179 49.9617,-14.7913 5.4487,-0.8443 12.2023,-2.559 14.4852,-9.76 9.2865,0.026 30.3221,0.4329 35.0018,-3.9139 6.8626,-8.1044 8.3095,-16.53473 8.8095,-23.53473 0.5,-7 -6.1391,-28.3956 -12.8113,-35.6026 -14.802,-15.5731 -28.5452,-24.3305 -40.4982,-16.4652 -19.5795,7.9356 -49.1606,23.7385 -70.4853,24.207 -15.8131,-0.414 -19.8791,-5.24 -24.7217,-12.0166 -7.7242,-10.809 -26.8278,-17.6043 -36.3278,-21.1043 -23.5011,-10.4609 -48.1482,-19.9209 -71.4487,-29.2418 -13.5,-4 -14.5221,-3.9417 -35.2765,-12.7582 z"
         style="display:inline;fill:#c8c8c8;fill-opacity:1;fill-rule:evenodd;stroke:#000000;stroke-width:4.5;stroke-linecap:butt;stroke-linejoin:miter;stroke-miterlimit:4;stroke-dasharray:none;stroke-opacity:1" />
      <path
         sodipodi:nodetypes="csscssssccccccczsssszcccccccsscsssssssccccccsszsccssccsccccscccccsssssccccsscccszcssscc"
         inkscape:connector-curvature="0"
         id="path4147"
         d="m 217.67953,609.19398 c -11.9457,-3.47652 -18.42887,-4.92626 -25.46363,-4.89547 -7.03487,0.0308 -11.62321,-0.21014 -18.17385,0.64225 -4.5219,0.5884 -10.86767,5.06069 -10.86767,5.06069 0,0 8.34998,1.60302 11.24219,2.63268 2.97132,1.05782 6.53881,1.94186 11.54308,3.87608 12.72868,4.91985 19.15719,6.3851 27.68063,11.04761 5.15032,2.81736 13.83125,5.74372 17.55747,10.25073 4.57401,5.53253 1.69636,11.10872 -0.93946,13.13187 -5.4702,6.26459 -35.54234,9.89066 -51.38926,12.91362 -3.30175,0.63824 -18.4923,1.62053 -20.86172,2.0992 2.95635,5.17594 17.6299,8.65514 23.62874,9.26658 12.21036,0.86828 36.73302,2.62304 42.02402,12.11869 4.85178,9.55282 6.63811,14.49224 10.79247,23.73027 23.1002,44.44404 53.20995,81.1482 84.04583,102.98312 61.20931,36.78077 68.06801,37.60588 80.25931,41.11746 12.19131,3.51157 19.09447,3.41017 25.62816,3.12428 9.6979,-0.42434 13.44295,-0.35186 21.53276,-1.53597 5.71242,-0.83612 11.68777,-3.20944 15.26077,-5.28882 66.89265,-38.92959 -9.37355,11.76529 -9.37355,11.76529 -5.20674,3.18465 -8.73793,4.54719 -16.35105,9.17577 -7.61312,4.62858 -6.46375,4.46307 -12.11746,7.58661 -5,2.8572 -10.02692,6.23335 -15.20852,8.30055 -10.8749,3.6095 -23.2577,2.5315 -32.6588,2.5257 -3.3586,0 -6.5927,1.5157 -5.8801,2.4993 15.7372,5.0091 26.0746,17.0364 39.8536,8.3758 4.0805,-2.5116 2.0343,2.2327 2.7486,6.5184 -1.9797,13.0764 23.9911,24.1462 23.8314,30.8 -0.3457,5.88 -1.2544,9.9091 -6.9016,13.2967 -2.2474,1.3482 -7.6495,2.7245 -11.6042,2.8665 -1.6455,0.059 -13.4615,0.023 -13.4615,0.023 0,0 10.6999,5.608 16.6333,5.8431 6.5613,0.26 16.5892,-3.3654 20.1607,-6.2225 3.5714,-2.8572 8.0284,-9.3943 8.6717,-12.2514 0.6275,-2.7874 -2.7078,-11.2091 -4.7139,-14.5447 -5.8209,-9.6782 -11.4098,-9.8727 -14.9812,-14.1584 -3.5715,-4.2857 -3.5715,-7.8968 -5.6058,-10.8322 -1.5277,-2.2045 -6.5277,-6.2061 -1.5277,-9.0633 2.6293,-1.5024 3.6812,1.5718 8.3822,-0.5831 21.1322,-13.5491 42.1673,-29.642 60.6623,-42.3973 14.7402,-10.34453 35.3761,-26.58752 50.6808,-27.14286 2.7705,4.89905 -7.0264,23.99617 -9.6589,30.49186 -13.1209,30.31 -17.8635,49.3259 -29.4325,78.6237 -2.8572,7.1428 -9.2858,17.2835 -9.2858,17.2835 0,0 3.5784,3.999 6.2329,5 9.3443,3.5238 9.1078,1.0207 10.0577,-1.1918 0.7398,-1.7232 0.5598,-3.8105 2.3002,-3.7306 1.7403,0.08 10.366,4.8438 14.6442,4.8428 4.2858,-9e-4 10.6549,-4.0084 14.8122,-3.6321 15.0503,2.4166 16.4277,11.7993 9.8889,23.9421 0,0 9.3106,-9.0013 8.7711,-12.9907 -1.053,-7.7863 -1.4955,-11.9907 -4.5643,-15.2371 -2.2953,-2.4282 -5.806,-6.3427 -9.7698,-7.6226 -8.0612,-0.5589 -12.6526,4.3409 -23.5838,4.4068 0,0 -11.9057,2.995 -9.7628,-3.4335 1.4478,-4.3436 4.4587,-12.7896 5.8328,-16.9029 4.5526,-12.9718 9.7188,-27.3824 13.7122,-39.305 9.519,-22.3004 19.1784,-48.06318 26.9538,-67.41252 1.4345,-3.80574 67.09966,-31.62563 67.09966,-31.62563 0,0 6.29318,-2.81043 10.18476,-6.32459 4.06415,-3.66999 7.72246,-8.19806 10.98216,-12.94542 19.8484,-15.72127 41.82619,-12.75554 65.25828,-12.352 4.01891,0.0715 10.89581,-4.01319 2.7249,-9.2489 -9.14273,-6.73182 -34.62313,-8.87382 -22.02438,-13.06009 10.63287,-0.27666 21.63355,-0.42059 32.00947,0.59001 6.27588,0.66769 4.59714,-3.01509 -3.60954,-5.59004 -8.2066,-2.57499 -17.97503,-2.8979 -21.45973,-3.68039 -1.74638,-0.39216 2.61715,-1.51119 6.53535,-1.8438 3.89993,-0.33103 7.34376,0.12651 10.26844,-1.18872 3.76538,-1.6933 -2.57138,-3.09421 -9.30573,-4.462 -3.75166,-0.76195 -7.91085,-1.69182 -9.83331,-2.22831 -4.5491,-4.22291 42.24084,-11.13469 52.24769,-13.49957 38.15338,-6.51688 76.7714,-8.80116 112.60946,-10.81914 30.89625,-1.67824 47.95808,0.0767 58.98016,-18.41238 3.51929,-7.84814 -23.84781,-6.52452 -20.5788,-9.10532 2.56252,-2.02303 23.20107,-2.19508 27.79988,-8.66651 3.51088,-4.9405 -4.64137,-16.01003 -14.15087,-17.99909 -44.55352,-2.66675 -87.77907,2.68898 -140.92318,10.54007 -33.95317,5.74859 -68.47827,11.92091 -102.03657,16.84767 -14.31351,2.0755 -49.16705,7.11097 -56.94842,7.40485 -36.22062,1.36797 -64.72907,-2.71399 -93.85057,-9.18324 -29.12151,-6.46925 -52.1037,-10.16067 -76.30217,-17.49835 -8.3316,-2.57013 -24.9163,-9.45375 -30.28061,-12.47999 -5.73569,-3.23569 -23.13534,-11.14654 -32.78815,-16.21611 -32.18016,-16.90075 -57.62822,-31.33058 -87.23989,-37.26839 -20.32188,-4.075 -56.68866,1.77141 -77.25558,32.52734 z"
         style="display:inline;fill:#ffffff;fill-opacity:1;fill-rule:evenodd;stroke:#000000;stroke-width:4.5;stroke-linecap:butt;stroke-linejoin:miter;stroke-miterlimit:4;stroke-dasharray:none;stroke-opacity:1" />
      <path
         sodipodi:nodetypes="zccsccz"
         inkscape:connector-curvature="0"
         id="path4150"
         d="m 246.48794,679.14361 c -1.19509,1.29725 -2.80287,5.03348 -3.61203,7.16525 -2.77111,7.34091 -5.73752,15.69678 -1.99521,22.28789 1.19652,2.43394 5.17087,6.27949 6.75699,5.31366 1.58611,-0.96584 1.22913,-6.34885 1.57297,-9.52145 0.34484,-7.73105 -0.18267,-14.27907 -0.31911,-21.29046 -0.01,-2.26851 -1.20844,-5.25218 -2.40361,-3.95489 z"
         style="display:inline;fill:#d9d9d9;fill-opacity:1;fill-rule:evenodd;stroke:#202020;stroke-width:4.5;stroke-linecap:butt;stroke-linejoin:miter;stroke-miterlimit:4;stroke-dasharray:none;stroke-opacity:1" />
      <path
         sodipodi:nodetypes="cczcccc"
         inkscape:connector-curvature="0"
         id="path4152"
         d="m 257.46111,684.9943 c -1.85472,4.08533 -0.48231,10.5699 0.22888,13.64866 1.04474,3.9602 6.90422,16.31915 10.92265,16.02388 4.01834,-0.29523 3.16887,-4.02136 3.55792,-6.53535 0.17957,-5.08713 0.0634,-10.28548 -1.61196,-14.59955 -1.51076,-3.38385 -3.51194,-6.09128 -7.17665,-7.74511 -1.54834,-0.66961 -5.28297,-2.76394 -5.92084,-0.79253 z"
         style="display:inline;fill:#d9d9d9;fill-opacity:1;fill-rule:evenodd;stroke:#202020;stroke-width:4.5;stroke-linecap:butt;stroke-linejoin:miter;stroke-miterlimit:4;stroke-dasharray:none;stroke-opacity:1" />
      <path
         sodipodi:nodetypes="ccccc"
         inkscape:connector-curvature="0"
         id="path4154"
         d="m 281.82495,699.3833 c 1.5986,2.53368 4.37861,5.5669 6.68657,5.93971 7.53168,0.0911 13.00149,-3.36577 7.57456,-11.32743 -4.23193,-3.62004 -7.06095,-7.04189 -12.81105,-4.6396 -4.49481,2.05499 -2.83821,7.12974 -1.45008,10.02732 z"
         style="display:inline;fill:#d9d9d9;fill-opacity:1;fill-rule:evenodd;stroke:#202020;stroke-width:4.5;stroke-linecap:butt;stroke-linejoin:miter;stroke-miterlimit:4;stroke-dasharray:none;stroke-opacity:1" />
      <path
         sodipodi:nodetypes="czccsc"
         inkscape:connector-curvature="0"
         id="path4156"
         d="m 253.10021,719.38622 c 2.38875,-0.91994 8.19885,1.46132 11.11346,2.66821 2.91462,1.20691 8.30873,4.42279 10.7298,8.30507 1.06027,1.7962 1.00043,4.14206 0.25318,7.30218 -2.28232,6.62184 -4.1233,9.37405 -8.06204,7.05988 -7.70522,-4.52709 -17.88151,-22.82144 -14.0344,-25.33534 z"
         style="display:inline;fill:#d9d9d9;fill-opacity:1;fill-rule:evenodd;stroke:#202020;stroke-width:4.5;stroke-linecap:butt;stroke-linejoin:miter;stroke-miterlimit:4;stroke-dasharray:none;stroke-opacity:1" />
      <path
         sodipodi:nodetypes="csccsscc"
         inkscape:connector-curvature="0"
         id="path4158"
         d="m 289.76859,719.52062 c 2.9509,0.94598 4.12682,2.4376 5.4705,4.86402 1.34377,2.42637 2.40404,4.22257 3.61105,7.46811 2.17143,5.79072 4.23024,10.83115 -1.80477,10.75321 -4.37408,-1.3809 -7.52352,-3.62005 -8.74111,-5.00049 -1.38781,-1.57341 -3.41486,-3.72467 -4.64297,-6.45561 -1.2281,-2.73094 -2.58103,-6.83442 -2.2865,-8.98731 -0.91183,-4.51119 4.97709,-3.72918 8.3938,-2.64193 z"
         style="display:inline;fill:#d9d9d9;fill-opacity:1;fill-rule:evenodd;stroke:#000000;stroke-width:4.5;stroke-linecap:butt;stroke-linejoin:miter;stroke-miterlimit:4;stroke-dasharray:none;stroke-opacity:1" />
      <path
         sodipodi:nodetypes="zscccz"
         inkscape:connector-curvature="0"
         id="path4160"
         d="m 287.22294,753.67373 c 3.26622,0.73161 8.0147,1.31952 9.76364,3.48971 1.61596,2.00515 1.61884,3.10631 3.3193,6.88761 5.56017,16.84994 5.75662,24.64576 -7.99519,11.42468 -6.79955,-6.61496 -11.82383,-11.43639 -15.77027,-17.65854 -5.17037,-7.60548 7.4164,-4.87512 10.68252,-4.14346 z"
         style="display:inline;fill:#d9d9d9;fill-opacity:1;fill-rule:evenodd;stroke:#000000;stroke-width:4.5;stroke-linecap:butt;stroke-linejoin:miter;stroke-miterlimit:4;stroke-dasharray:none;stroke-opacity:1" />
      <path
         inkscape:transform-center-y="-1.6201419"
         inkscape:transform-center-x="-4.0462634"
         sodipodi:nodetypes="czcccc"
         inkscape:connector-curvature="0"
         id="path4162"
         d="m 315.92951,776.84873 c 11.9308,5.13305 18.02708,9.14498 24.31231,15.662 6.28533,6.51697 10.45587,14.02622 8.20019,15.92624 -2.72664,2.12206 -6.22102,1.81422 -9.69603,0.72437 -8.45085,-2.70731 -14.50278,-9.24292 -19.86429,-15.88609 -8.68195,-11.57301 -17.79383,-22.96341 -2.95218,-16.42652 z"
         style="display:inline;fill:#d9d9d9;fill-opacity:1;fill-rule:evenodd;stroke:#000000;stroke-width:4.5;stroke-linecap:butt;stroke-linejoin:miter;stroke-miterlimit:4;stroke-dasharray:none;stroke-opacity:1" />
      <path
         sodipodi:nodetypes="ccscccc"
         inkscape:connector-curvature="0"
         id="path4164"
         d="m 313.9836,743.70305 c 11.383,1.23242 19.87353,3.66588 20.61824,16.1341 -0.2248,2.07558 -0.0752,3.62818 -1.46179,7.98148 -2.08829,6.55591 -4.27865,5.84771 -6.44148,3.28456 -6.76131,-5.92819 -7.45329,-8.06551 -13.41046,-13.44364 -3.14449,-3.67424 -5.51017,-6.79649 -8.77509,-11.17961 -2.40601,-4.20111 4.86449,-3.01061 9.47058,-2.77689 z"
         style="display:inline;fill:#d9d9d9;fill-opacity:1;fill-rule:evenodd;stroke:#000000;stroke-width:4.5;stroke-linecap:butt;stroke-linejoin:miter;stroke-miterlimit:4;stroke-dasharray:none;stroke-opacity:1" />
      <path
         sodipodi:nodetypes="csssczc"
         inkscape:connector-curvature="0"
         id="path4166"
         d="m 358.05557,766.71493 c -4.52712,2.2884 -6.60607,3.24552 -7.85441,3.88161 -2.25789,1.15048 -4.29416,2.45386 -6.86727,2.34821 -2.5731,-0.10565 -4.04703,-2.22093 -3.84688,-4.58394 0.20005,-2.36296 0.26371,-5.28428 0.88402,-7.83624 1.86727,-7.72011 10.25713,-6.83711 18.6595,-4.15715 8.40236,2.67995 10.62142,4.69763 -0.97496,10.34751 z"
         style="display:inline;fill:#d9d9d9;fill-opacity:1;fill-rule:evenodd;stroke:#000000;stroke-width:4.5;stroke-linecap:butt;stroke-linejoin:miter;stroke-miterlimit:4;stroke-dasharray:none;stroke-opacity:1" />
      <path
         sodipodi:nodetypes="czcccc"
         inkscape:connector-curvature="0"
         id="path4168"
         d="m 365.41499,780.67036 c 7.46911,0.81585 15.38884,6.73208 19.51579,13.98688 4.12703,7.25474 6.83176,14.95038 8.18764,21.5647 0.42372,7.14647 -15.26546,-2.03212 -17.38165,-3.41486 -11.20544,-7.36073 -31.98952,-23.81777 -31.50161,-29.13552 2.33535,-3.63805 13.71072,-3.81702 21.17983,-3.0012 z"
         style="display:inline;fill:#d9d9d9;fill-opacity:1;fill-rule:evenodd;stroke:#000000;stroke-width:4.5;stroke-linecap:butt;stroke-linejoin:miter;stroke-miterlimit:4;stroke-dasharray:none;stroke-opacity:1" />
    </g>
  </g>
</svg>
