<?xml version="1.0" encoding="UTF-8" standalone="no"?>
<!-- Created with Inkscape (http://www.inkscape.org/) -->

<svg
   xmlns:osb="http://www.openswatchbook.org/uri/2009/osb"
   xmlns:dc="http://purl.org/dc/elements/1.1/"
   xmlns:cc="http://creativecommons.org/ns#"
   xmlns:rdf="http://www.w3.org/1999/02/22-rdf-syntax-ns#"
   xmlns:svg="http://www.w3.org/2000/svg"
   xmlns="http://www.w3.org/2000/svg"
   xmlns:sodipodi="http://sodipodi.sourceforge.net/DTD/sodipodi-0.dtd"
   xmlns:inkscape="http://www.inkscape.org/namespaces/inkscape"
   width="45"
   height="45"
   viewBox="-3 0 537 516"
   id="svg2"
   version="1.1"
   inkscape:version="0.91 r13725"
   sodipodi:docname="tumblr.svg">
  <defs
     id="defs4">
    <linearGradient
       id="linearGradient4351"
       osb:paint="solid">
      <stop
         style="stop-color:#000000;stop-opacity:1;"
         offset="0"
         id="stop4353" />
    </linearGradient>
  </defs>
  <sodipodi:namedview
     id="base"
     pagecolor="#666666"
     bordercolor="#000000"
     borderopacity="1"
     inkscape:pageopacity="1"
     inkscape:pageshadow="2"
     inkscape:zoom="16"
     inkscape:cx="31.018296"
     inkscape:cy="22.23379"
     inkscape:document-units="px"
     inkscape:current-layer="layer1-3"
     showgrid="false"
     borderlayer="true"
     inkscape:showpageshadow="true"
     inkscape:window-width="1920"
     inkscape:window-height="1017"
     inkscape:window-x="-8"
     inkscape:window-y="-8"
     inkscape:window-maximized="1"
     units="px">
    <inkscape:grid
       type="xygrid"
       id="grid3489" />
  </sodipodi:namedview>
  <metadata
     id="metadata7">
    <rdf:RDF>
      <cc:Work
         rdf:about="">
        <dc:format>image/svg+xml</dc:format>
        <dc:type
           rdf:resource="http://purl.org/dc/dcmitype/StillImage" />
        <dc:title />
      </cc:Work>
    </rdf:RDF>
  </metadata>
  <g
     inkscape:label="Layer 1"
     inkscape:groupmode="layer"
     id="layer1"
     transform="translate(0,-536.88937)"
     style="display:inline">
    <text
       xml:space="preserve"
       style="font-style:normal;font-weight:normal;font-size:40px;line-height:125%;font-family:sans-serif;letter-spacing:0px;word-spacing:0px;fill:#000000;fill-opacity:1;stroke:none;stroke-width:1px;stroke-linecap:butt;stroke-linejoin:miter;stroke-opacity:1"
       x="168.83125"
       y="465.53238"
       id="text3416"
       sodipodi:linespacing="125%"><tspan
         sodipodi:role="line"
         id="tspan3418"
         x="168.83125"
         y="465.53238" /></text>
    <g
       id="layer1-3"
       inkscape:label="Layer 1"
       transform="translate(64.945374,-2.1346825)"
       style="display:inline">
      <text
         sodipodi:linespacing="125%"
         id="text3416-7"
         y="465.53238"
         x="168.83125"
         style="font-style:normal;font-weight:normal;font-size:40px;line-height:125%;font-family:sans-serif;letter-spacing:0px;word-spacing:0px;fill:#000000;fill-opacity:1;stroke:none;stroke-width:1px;stroke-linecap:butt;stroke-linejoin:miter;stroke-opacity:1"
         xml:space="preserve"><tspan
           y="465.53238"
           x="168.83125"
           id="tspan3418-8"
           sodipodi:role="line" /></text>
      <text
         xml:space="preserve"
         style="font-style:normal;font-weight:normal;font-size:40px;line-height:125%;font-family:sans-serif;letter-spacing:0px;word-spacing:0px;fill:#000000;fill-opacity:1;stroke:none;stroke-width:1px;stroke-linecap:butt;stroke-linejoin:miter;stroke-opacity:1"
         x="160.86322"
         y="674.7959"
         id="text3416-72"
         sodipodi:linespacing="125%"><tspan
           sodipodi:role="line"
           id="tspan3418-6"
           x="160.86322"
           y="674.7959" /></text>
      <ellipse
         style="opacity:1;fill:none;stroke:#ffffff;stroke-width:35;stroke-miterlimit:4;stroke-dasharray:none;stroke-opacity:1"
         id="path3464-4"
         cx="201.08659"
         cy="796.76038"
         rx="243.05226"
         ry="234.75697" />
      <g
         inkscape:groupmode="layer"
         id="layer2"
         inkscape:label="Layer 2"
         style="display:inline" />
      <g
         inkscape:groupmode="layer"
         id="layer3"
         inkscape:label="Layer 3"
         style="display:inline">
        <g
           id="g4190"
           transform="matrix(1.4527756,0,0,1.4527756,-689.87355,-399.31416)">
          <path
             sodipodi:nodetypes="ccssssscccsssssscccccccccccccssccssscscccssscc"
             inkscape:connector-curvature="0"
             id="path4158"
             d="m 647.5908,695.78613 -37.50143,0.51276 c 0,0 -17.79824,-0.20308 -25.47488,-0.25639 -6.89933,-0.0479 -14.68149,-0.6705 -19.8578,3.47279 -5.24449,4.19785 -3.36495,11.97349 -4.49831,19.90443 -1.06251,7.43501 -2.38953,12.43771 -7.94779,20.62695 -5.09881,7.5123 -11.09195,11.85045 -19.4849,16.57148 -8.39295,4.7211 -14.93997,5.24414 -14.93997,5.24414 l -0.69921,52.20833 27.17629,0.0181 c 0,0 -0.37292,27.78343 -0.37292,42.4711 0,14.68766 -0.87197,28.09285 1.5616,37.75781 2.69455,10.70151 8.33772,20.90914 16.26849,28.85442 8.77893,8.79502 16.1751,13.05199 30.41601,17.83008 15.47572,5.19239 32.00776,5.78056 49.31823,4.73138 17.31045,-1.04912 25.03106,-0.72326 44.07409,-9.43945 18.7963,-8.60327 13.65806,-16.17526 13.65806,-16.17526 l -15.24295,-44.68008 -36.91875,0 0,-61.55455 42.76887,0 0,-62.23047 -41.78997,0 z m -11.35066,11.97994 0.32631,55.26158 41.48697,0.32631 -0.0466,38.71341 -42.04635,-0.16315 c 0,0 -2.33282,62.4887 0.30299,77.58997 2.63582,15.10126 11.53573,14.13339 20.18412,14.75351 8.64838,0.62013 20.32395,-3.07655 20.32395,-3.07655 l 9.71915,29.69348 c -15.03297,9.40464 -37.23104,11.77083 -49.27162,11.09427 -12.04057,-0.67655 -20.14681,-3.69822 -26.45378,-7.3651 -6.30696,-3.66687 -12.44632,-10.60278 -17.66692,-18.73907 -5.2206,-8.13629 -8.80584,-25.21525 -8.81016,-34.68125 -0.004,-7.85962 0.20977,-23.53147 0.20977,-35.24062 0,-11.70915 -0.51276,-34.16849 -0.51276,-34.16849 l -25.73125,0.44285 -0.81576,-31.628 c 0,0 16.32523,-8.37962 21.67579,-12.1431 5.35056,-3.76348 10.12125,-10.68567 13.51822,-16.9444 3.39698,-6.25873 5.69218,-13.80325 7.38842,-20.95325 1.69624,-7.15001 0.85034,-12.13253 5.57044,-12.44609 10.86628,0.0491 23.38551,0.14175 30.64907,-0.32631 z"
             style="display:inline;fill:#ffffff;fill-opacity:1;fill-rule:evenodd;stroke:#000000;stroke-width:0;stroke-linecap:butt;stroke-linejoin:miter;stroke-miterlimit:4;stroke-dasharray:none;stroke-opacity:1"
             transform="translate(-6.6591937e-8,2.8561988e-6)" />
          <path
             sodipodi:nodetypes="ccccc"
             inkscape:connector-curvature="0"
             id="path4176"
             d="m 544.3655,814.07152 27.39015,0.44547 0,16.48082 -27.61651,0.22268 z"
             style="display:inline;fill:#d0d0d0;fill-opacity:1;fill-rule:evenodd;stroke:#000000;stroke-width:0;stroke-linecap:butt;stroke-linejoin:miter;stroke-miterlimit:4;stroke-dasharray:none;stroke-opacity:1" />
        </g>
      </g>
    </g>
  </g>
</svg>
