<?xml version="1.0" encoding="UTF-8" standalone="no"?>
<!-- Created with Inkscape (http://www.inkscape.org/) -->

<svg
   xmlns:osb="http://www.openswatchbook.org/uri/2009/osb"
   xmlns:dc="http://purl.org/dc/elements/1.1/"
   xmlns:cc="http://creativecommons.org/ns#"
   xmlns:rdf="http://www.w3.org/1999/02/22-rdf-syntax-ns#"
   xmlns:svg="http://www.w3.org/2000/svg"
   xmlns="http://www.w3.org/2000/svg"
   xmlns:sodipodi="http://sodipodi.sourceforge.net/DTD/sodipodi-0.dtd"
   xmlns:inkscape="http://www.inkscape.org/namespaces/inkscape"
   width="45"
   height="45"
   viewBox="-3 0 537 516"
   id="svg2"
   version="1.1"
   inkscape:version="0.91 r13725"
   sodipodi:docname="twitter.svg">
  <defs
     id="defs4">
    <linearGradient
       id="linearGradient4351"
       osb:paint="solid">
      <stop
         style="stop-color:#000000;stop-opacity:1;"
         offset="0"
         id="stop4353" />
    </linearGradient>
  </defs>
  <sodipodi:namedview
     id="base"
     pagecolor="#666666"
     bordercolor="#000000"
     borderopacity="1"
     inkscape:pageopacity="1"
     inkscape:pageshadow="2"
     inkscape:zoom="1"
     inkscape:cx="26.96804"
     inkscape:cy="253.23495"
     inkscape:document-units="px"
     inkscape:current-layer="layer1-8"
     showgrid="false"
     borderlayer="true"
     inkscape:showpageshadow="true"
     inkscape:window-width="1920"
     inkscape:window-height="1017"
     inkscape:window-x="-8"
     inkscape:window-y="-8"
     inkscape:window-maximized="1"
     units="px">
    <inkscape:grid
       type="xygrid"
       id="grid3489" />
  </sodipodi:namedview>
  <metadata
     id="metadata7">
    <rdf:RDF>
      <cc:Work
         rdf:about="">
        <dc:format>image/svg+xml</dc:format>
        <dc:type
           rdf:resource="http://purl.org/dc/dcmitype/StillImage" />
        <dc:title></dc:title>
      </cc:Work>
    </rdf:RDF>
  </metadata>
  <g
     inkscape:label="Layer 1"
     inkscape:groupmode="layer"
     id="layer1"
     transform="translate(0,-536.88937)">
    <text
       xml:space="preserve"
       style="font-style:normal;font-weight:normal;font-size:40px;line-height:125%;font-family:sans-serif;letter-spacing:0px;word-spacing:0px;fill:#000000;fill-opacity:1;stroke:none;stroke-width:1px;stroke-linecap:butt;stroke-linejoin:miter;stroke-opacity:1"
       x="168.83125"
       y="465.53238"
       id="text3416"
       sodipodi:linespacing="125%"><tspan
         sodipodi:role="line"
         id="tspan3418"
         x="168.83125"
         y="465.53238" /></text>
    <g
       id="layer1-3"
       inkscape:label="Layer 1"
       transform="translate(64.945374,-2.1346825)">
      <text
         sodipodi:linespacing="125%"
         id="text3416-7"
         y="465.53238"
         x="168.83125"
         style="font-style:normal;font-weight:normal;font-size:40px;line-height:125%;font-family:sans-serif;letter-spacing:0px;word-spacing:0px;fill:#000000;fill-opacity:1;stroke:none;stroke-width:1px;stroke-linecap:butt;stroke-linejoin:miter;stroke-opacity:1"
         xml:space="preserve"><tspan
           y="465.53238"
           x="168.83125"
           id="tspan3418-8"
           sodipodi:role="line" /></text>
      <g
         id="layer1-8"
         inkscape:label="Layer 1"
         transform="translate(-183.91341,499.3982)">
        <text
           sodipodi:linespacing="125%"
           id="text3416-9"
           y="465.53238"
           x="168.83125"
           style="font-style:normal;font-weight:normal;font-size:40px;line-height:125%;font-family:sans-serif;letter-spacing:0px;word-spacing:0px;fill:#000000;fill-opacity:1;stroke:none;stroke-width:1px;stroke-linecap:butt;stroke-linejoin:miter;stroke-opacity:1"
           xml:space="preserve"><tspan
             y="465.53238"
             x="168.83125"
             id="tspan3418-803"
             sodipodi:role="line" /></text>
        <g
           id="layer1-9"
           inkscape:label="Layer 1"
           transform="translate(111,-288)">
          <text
             sodipodi:linespacing="125%"
             id="text3416-0"
             y="465.53238"
             x="168.83125"
             style="font-style:normal;font-weight:normal;font-size:40px;line-height:125%;font-family:sans-serif;letter-spacing:0px;word-spacing:0px;fill:#000000;fill-opacity:1;stroke:none;stroke-width:1px;stroke-linecap:butt;stroke-linejoin:miter;stroke-opacity:1"
             xml:space="preserve"><tspan
               y="465.53238"
               x="168.83125"
               id="tspan3418-89"
               sodipodi:role="line" /></text>
          <g
             transform="translate(64.945374,-2.1346825)"
             inkscape:label="Layer 1"
             id="layer1-3-5">
            <text
               xml:space="preserve"
               style="font-style:normal;font-weight:normal;font-size:40px;line-height:125%;font-family:sans-serif;letter-spacing:0px;word-spacing:0px;fill:#000000;fill-opacity:1;stroke:none;stroke-width:1px;stroke-linecap:butt;stroke-linejoin:miter;stroke-opacity:1"
               x="168.83125"
               y="465.53238"
               id="text3416-7-4"
               sodipodi:linespacing="125%"><tspan
                 sodipodi:role="line"
                 id="tspan3418-8-6"
                 x="168.83125"
                 y="465.53238" /></text>
            <ellipse
               style="opacity:1;fill:none;stroke:#ffffff;stroke-width:35;stroke-miterlimit:4;stroke-dasharray:none;stroke-opacity:1"
               id="path3464"
               cx="209.05463"
               cy="587.49689"
               rx="243.05226"
               ry="234.75697" />
            <g
               transform="matrix(1.0549053,0,0,1.3462186,814.88927,23.123397)"
               style="font-style:normal;font-variant:normal;font-weight:normal;font-stretch:normal;font-size:271.47909546px;line-height:125%;font-family:'Britannic Bold';-inkscape-font-specification:'Britannic Bold, ';letter-spacing:0px;word-spacing:0px;fill:#000000;fill-opacity:1;stroke:none;stroke-width:1px;stroke-linecap:butt;stroke-linejoin:miter;stroke-opacity:1"
               id="text4421" />
            <g
               transform="matrix(1.1034744,0,0,1.3001737,619.09905,33.797375)"
               style="font-style:normal;font-variant:normal;font-weight:normal;font-stretch:normal;font-size:232.33560181px;line-height:125%;font-family:'Tw Cen MT Condensed Extra Bold';-inkscape-font-specification:'Tw Cen MT Condensed Extra Bold, ';letter-spacing:0px;word-spacing:0px;fill:#000000;fill-opacity:1;stroke:none;stroke-width:1px;stroke-linecap:butt;stroke-linejoin:miter;stroke-opacity:1"
               id="text4432" />
          </g>
        </g>
        <path
           style="opacity:1;fill:#ffffff;fill-opacity:1;stroke:#ffffff;stroke-width:0;stroke-miterlimit:4;stroke-dasharray:none;stroke-opacity:1"
           d="m 301.34288,434.05718 c -22.40274,-2.74576 -44.30725,-9.25537 -65.03794,-19.32801 l -14.36885,-6.98156 16.56907,-1.15476 c 21.14185,-1.47348 36.79126,-5.46108 54.24677,-13.82251 13.93709,-6.67606 26.74108,-15.02688 26.74108,-17.44064 0,-0.71113 -4.00676,-1.65627 -8.90391,-2.10033 -11.06407,-1.00326 -25.78202,-7.82288 -35.67293,-16.5292 -7.19363,-6.33208 -16.03936,-18.54186 -18.03063,-24.88767 -0.97431,-3.10497 -0.56528,-3.23509 10.16891,-3.23509 6.15123,0 12.63907,-0.4618 14.41743,-1.02624 3.51022,-1.1141 4.43384,-3.8474 1.30008,-3.8474 -5.18978,0 -24.0156,-10.95028 -31.66467,-18.41816 -11.64703,-11.37115 -20.77626,-30.61565 -20.83444,-43.91914 l -0.018,-4.10565 7.18442,3.10116 c 6.84605,2.95512 23.06579,5.71883 23.06579,3.93024 0,-0.46578 -4.10309,-4.94996 -9.118,-9.96485 -20.33011,-20.33011 -26.30527,-50.09164 -15.12094,-75.31553 l 3.24365,-7.31537 6.80071,7.88051 c 8.24715,9.55663 26.55374,24.98409 39.90725,33.63094 25.40838,16.45281 56.94753,27.45247 89.35104,31.16228 l 8.43175,0.96533 0.0294,-16.40065 c 0.0349,-19.50082 2.9428,-28.69465 13.53066,-42.77962 21.17418,-28.16791 63.11421,-35.80646 92.62453,-16.86974 4.04062,2.59285 8.57147,6.06777 10.06854,7.72203 1.49709,1.65425 4.20565,3.00773 6.01903,3.00773 4.52596,0 20.88597,-5.44444 31.39998,-10.4496 5.27706,-2.51213 8.69693,-3.44547 8.69693,-2.37355 0,6.00211 -22.56099,32.38771 -27.81627,32.53178 -0.92274,0.0253 -0.59213,0.6807 0.73467,1.45641 2.35137,1.37477 20.74217,-2.18012 30.48475,-5.8926 7.22142,-2.75177 4.84416,0.87506 -10.65447,16.25495 l -14.81389,14.70036 -1.8296,21.36215 c -3.68735,43.05304 -17.05729,78.1845 -42.71119,112.2298 -22.34586,29.6552 -57.54261,54.49282 -93.07565,65.68159 -25.66212,8.08058 -60.58466,11.57533 -85.34503,8.54061 z"
           id="path3453"
           inkscape:connector-curvature="0" />
      </g>
    </g>
  </g>
</svg>
