<?xml version="1.0" encoding="UTF-8" standalone="no"?>
<!-- Created with Inkscape (http://www.inkscape.org/) -->

<svg
   xmlns:dc="http://purl.org/dc/elements/1.1/"
   xmlns:cc="http://creativecommons.org/ns#"
   xmlns:rdf="http://www.w3.org/1999/02/22-rdf-syntax-ns#"
   xmlns:svg="http://www.w3.org/2000/svg"
   xmlns="http://www.w3.org/2000/svg"
   xmlns:sodipodi="http://sodipodi.sourceforge.net/DTD/sodipodi-0.dtd"
   xmlns:inkscape="http://www.inkscape.org/namespaces/inkscape"
   width="910"
   height="700"
   viewBox="0 0 909.99998 700.00001"
   id="svg4196"
   version="1.1"
   inkscape:version="0.91 r13725"
   sodipodi:docname="BT.svg">
  <defs
     id="defs4198" />
  <sodipodi:namedview
     id="base"
     pagecolor="#ffffff"
     bordercolor="#666666"
     borderopacity="1.0"
     inkscape:pageopacity="0.0"
     inkscape:pageshadow="2"
     inkscape:zoom="0.35"
     inkscape:cx="894.86626"
     inkscape:cy="520"
     inkscape:document-units="px"
     inkscape:current-layer="layer1"
     showgrid="false"
     units="px"
     inkscape:window-width="1920"
     inkscape:window-height="1017"
     inkscape:window-x="-8"
     inkscape:window-y="-8"
     inkscape:window-maximized="1" />
  <metadata
     id="metadata4201">
    <rdf:RDF>
      <cc:Work
         rdf:about="">
        <dc:format>image/svg+xml</dc:format>
        <dc:type
           rdf:resource="http://purl.org/dc/dcmitype/StillImage" />
        <dc:title></dc:title>
      </cc:Work>
    </rdf:RDF>
  </metadata>
  <g
     inkscape:label="Layer 1"
     inkscape:groupmode="layer"
     id="layer1"
     transform="translate(0,-352.36216)">
    <g
       id="g4802"
       transform="translate(7.5000122,-2.0000333)">
      <circle
         r="293"
         cy="661.96423"
         cx="298.29999"
         id="path4151"
         style="opacity:1;fill:#818181;fill-opacity:1;stroke:#ffffff;stroke-width:10;stroke-miterlimit:4;stroke-dasharray:none;stroke-dashoffset:0;stroke-opacity:1" />
      <path
         sodipodi:nodetypes="zcccccccscccccscccsccz"
         inkscape:connector-curvature="0"
         id="path4171"
         d="m 347.79239,884.22977 c -20.7545,-8.8166 -71.5475,-32.6482 -105.4305,-44.87914 -10.22068,-3.08688 -26.08941,-1.63503 -36.44866,10.48172 -3.03479,8.93222 -3.93494,19.01712 2.26003,26.14092 44.30373,34.4924 93.64533,44.7427 142.91213,67.6869 43.4094,19.3862 91.0841,37.0331 125.7418,53.4486 9.5,5.00003 15.6025,6.24183 19.1208,11.74183 0.9345,7.9942 -52.5257,16.603 -60.793,19.2417 -10.1044,1.7235 -6.3278,4.0165 2.1722,8.0165 8.5,4 32.3478,10.4139 44.8478,10.4139 21.0441,1.2136 34.7265,-3.6257 48.9287,-7.3113 20.8817,-7.7824 29.9523,-8.2179 49.9617,-14.7913 5.4487,-0.8443 12.2023,-2.559 14.4852,-9.76 9.2865,0.026 30.3221,0.4329 35.0018,-3.9139 6.8626,-8.1044 8.3095,-16.53473 8.8095,-23.53473 0.5,-7 -6.1391,-28.3956 -12.8113,-35.6026 -14.802,-15.5731 -28.5452,-24.3305 -40.4982,-16.4652 -19.5795,7.9356 -49.1606,23.7385 -70.4853,24.207 -15.8131,-0.414 -19.8791,-5.24 -24.7217,-12.0166 -7.7242,-10.809 -26.8278,-17.6043 -36.3278,-21.1043 -23.5011,-10.4609 -48.1482,-19.9209 -71.4487,-29.2418 -13.5,-4 -14.5221,-3.9417 -35.2765,-12.7582 z"
         style="display:inline;fill:#c8c8c8;fill-opacity:1;fill-rule:evenodd;stroke:#000000;stroke-width:4.5;stroke-linecap:butt;stroke-linejoin:miter;stroke-miterlimit:4;stroke-dasharray:none;stroke-opacity:1" />
      <path
         sodipodi:nodetypes="csscssssccccccccssssccccccccsscsssssssccccccsszsccssccsccccscccccsssssccccsscccczcsccc"
         inkscape:connector-curvature="0"
         id="path4147"
         d="m 259.54279,481.44584 c -9.4689,-8.07006 -14.7871,-12.05125 -21.2156,-14.9084 -6.42861,-2.85714 -10.51445,-4.95878 -16.83838,-6.86805 -4.3654,-1.31797 -11.98715,0.15822 -11.98715,0.15822 0,0 6.95791,4.88664 9.17337,7.01192 2.27606,2.18341 5.16712,4.45284 8.93783,8.26934 9.59103,9.70754 14.85303,13.68046 20.71433,21.42857 3.5417,4.68184 10.2587,10.91113 11.8086,16.5499 1.9025,6.92177 -3.009,10.82715 -6.2427,11.59126 -7.5583,3.46991 -36.47198,-5.55677 -52.16457,-9.2992 -3.27304,-0.77208 -17.53005,-6.10644 -19.88734,-6.64167 0.57341,5.93309 12.52908,15.12439 17.74938,18.14239 10.78002,5.79983 32.42556,17.4579 33.35654,28.2882 0.50696,10.70229 0.11029,15.9398 0.11029,26.06896 2.8397,50.00828 15.2467,95.8325 34.4144,128.39343 40.7391,58.64922 69.4403,83.93809 127.9488,101.55719 13.3027,3.92263 29.5707,6.95288 38.032,7.4924 11.4054,0.72725 14.8746,2.14286 27.7317,2.14286 12.8571,0 27.1429,0.71429 37.1429,-0.71429 10,-1.42857 12.666,0.0692 3.9828,6.83062 -4.8157,3.74983 -11.9914,9.02572 -20.7143,15 -20.6148,14.18098 -43.6343,26.48068 -63.9828,37.94688 -5,2.8572 -4.3025,6.3435 -9.4841,8.4107 -10.8749,3.6095 -23.2577,2.5315 -32.6588,2.5257 -3.3586,0 -6.5927,1.5157 -5.8801,2.4993 15.7372,5.0091 26.0746,17.0364 39.8536,8.3758 4.0805,-2.5116 2.0343,2.2327 2.7486,6.5184 -1.9797,13.0764 23.9911,24.1462 23.8314,30.8 -0.3457,5.88 -1.2544,9.9091 -6.9016,13.2967 -2.2474,1.3482 -7.6495,2.7245 -11.6042,2.8665 -1.6455,0.059 -13.4615,0.023 -13.4615,0.023 0,0 10.6999,5.608 16.6333,5.8431 6.5613,0.26 16.5892,-3.3654 20.1607,-6.2225 3.5714,-2.8572 8.0284,-9.3943 8.6717,-12.2514 0.6275,-2.7874 -2.7078,-11.2091 -4.7139,-14.5447 -5.8209,-9.6782 -11.4098,-9.8727 -14.9812,-14.1584 -3.5715,-4.2857 -3.5715,-7.8968 -5.6058,-10.8322 -1.5277,-2.2045 -6.5277,-6.2061 -1.5277,-9.0633 2.6293,-1.5024 3.6812,1.5718 8.3822,-0.5831 21.1322,-13.5491 42.1673,-29.642 60.6623,-42.3973 14.7402,-10.34453 35.3761,-26.58752 50.6808,-27.14286 2.7705,4.89905 -7.0264,23.99617 -9.6589,30.49186 -13.1209,30.31 -17.8635,49.3259 -29.4325,78.6237 -2.8572,7.1428 -9.2858,17.2835 -9.2858,17.2835 0,0 3.5784,3.999 6.2329,5 9.3443,3.5238 9.1078,1.0207 10.0577,-1.1918 0.7398,-1.7232 0.5598,-3.8105 2.3002,-3.7306 1.7403,0.08 10.366,4.8438 14.6442,4.8428 4.2858,-9e-4 10.6549,-4.0084 14.8122,-3.6321 15.0503,2.4166 16.4277,11.7993 9.8889,23.9421 0,0 9.3106,-9.0013 8.7711,-12.9907 -1.053,-7.7863 -1.4955,-11.9907 -4.5643,-15.2371 -2.2953,-2.4282 -5.806,-6.3427 -9.7698,-7.6226 -8.0612,-0.5589 -12.6526,4.3409 -23.5838,4.4068 0,0 -11.9057,2.995 -9.7628,-3.4335 1.4478,-4.3436 4.4587,-12.7896 5.8328,-16.9029 4.5526,-12.9718 9.7188,-27.3824 13.7122,-39.305 9.519,-22.3004 19.1784,-48.06318 26.9538,-67.41252 1.4345,-3.80574 0.7307,-7.13069 0.7307,-7.13069 0,0 6.8922,0.0179 11.8827,-1.59101 5.2118,-1.68025 10.4054,-4.30954 15.3254,-7.30231 24.5501,-6.19757 43.378,5.52118 64.5831,15.49962 3.636,1.71354 11.5832,0.80867 6.2785,-7.31763 -5.5774,-9.88936 -27.9376,-22.29341 -14.7303,-20.94415 9.8109,4.10863 19.9028,8.48917 28.9514,13.66642 5.4499,3.18293 5.4293,-0.86437 -0.9993,-6.57866 -6.4285,-5.71429 -15.2051,-10.0152 -18.0623,-12.15806 -1.4319,-1.07392 3.0067,-0.30484 6.7166,0.99881 3.6926,1.29761 6.6458,3.12734 9.8526,3.12734 4.1286,0 -1.0761,-3.87661 -6.657,-7.88608 -3.1091,-2.23362 -6.521,-4.78753 -8.0543,-6.06529 -2.4169,-5.71715 43.0914,7.1695 53.1878,9.11687 37.4696,9.70462 73.627,23.46005 107.1398,36.31817 28.8664,11.14115 43.7074,19.73946 61.3429,7.39752 6.4285,-5.71429 -19.0738,-15.73142 -15.0339,-16.74442 3.1668,-0.79407 22.0602,7.51369 28.9086,3.49774 5.2283,-3.0659 2.3333,-16.50512 -5.5238,-22.21941 -39.5401,-20.70525 -81.1594,-33.54916 -132.8481,-48.18523 -33.3238,-8.68266 -67.343,-17.21344 -99.9696,-26.48367 -13.9055,-3.97762 -47.7375,-13.731 -54.9753,-16.60334 -33.5744,-13.65883 -57.9213,-29.02311 -81.8275,-46.86707 -23.9062,-17.84396 -43.3525,-30.6365 -62.4126,-47.25336 -6.5445,-5.76113 -18.8469,-18.84118 -22.4981,-23.80129 -3.904,-5.30345 -16.9435,-19.34494 -23.2527,-28.23715 -22.8227,-28.28997 -38.8213,-53.52251 -64.2796,-69.77008 -15.8925,-13.30462 -52.4279,-21.63463 -83.7996,-2.0198 z"
         style="display:inline;fill:#ffffff;fill-opacity:1;fill-rule:evenodd;stroke:#000000;stroke-width:4.5;stroke-linecap:butt;stroke-linejoin:miter;stroke-miterlimit:4;stroke-dasharray:none;stroke-opacity:1" />
      <path
         sodipodi:nodetypes="zccsccz"
         inkscape:connector-curvature="0"
         id="path4150"
         d="m 257.12769,557.05697 c -1.622,0.69297 -4.6207,3.44108 -6.233,5.05344 -5.5381,5.55854 -11.6706,11.96265 -10.9608,19.50876 0.093,2.71055 2.1405,7.84781 3.9832,7.61748 1.8427,-0.23034 3.7249,-5.28618 5.3397,-8.03864 3.4853,-6.90947 5.6898,-13.09777 8.441,-19.54828 0.9213,-2.07303 1.052,-5.28574 -0.5701,-4.59276 z"
         style="display:inline;fill:#d9d9d9;fill-opacity:1;fill-rule:evenodd;stroke:#202020;stroke-width:4.5;stroke-linecap:butt;stroke-linejoin:miter;stroke-miterlimit:4;stroke-dasharray:none;stroke-opacity:1" />
      <path
         sodipodi:nodetypes="cczcccc"
         inkscape:connector-curvature="0"
         id="path4152"
         d="m 264.73589,566.89345 c -3.3671,2.96523 -4.775,9.44218 -5.3891,12.54177 -0.6714,4.04028 -0.3963,17.71513 3.3897,19.09395 3.7859,1.37882 4.5394,-2.3679 5.9253,-4.50115 2.2502,-4.56593 4.2763,-9.35459 4.5177,-13.97626 0.01,-3.70577 -0.7047,-6.99577 -3.3687,-10.00714 -1.1375,-1.24573 -3.6846,-4.68753 -5.0749,-3.15117 z"
         style="display:inline;fill:#d9d9d9;fill-opacity:1;fill-rule:evenodd;stroke:#202020;stroke-width:4.5;stroke-linecap:butt;stroke-linejoin:miter;stroke-miterlimit:4;stroke-dasharray:none;stroke-opacity:1" />
      <path
         sodipodi:nodetypes="ccccc"
         inkscape:connector-curvature="0"
         id="path4154"
         d="m 281.05479,590.0091 c 0.4188,2.96643 1.7102,6.87298 3.6622,8.15958 6.8317,3.17213 13.2381,2.26275 11.554,-7.22426 -2.3749,-5.03724 -3.5516,-9.31834 -9.7811,-9.48573 -4.9422,0.0307 -5.5127,5.33843 -5.4351,8.55041 z"
         style="display:inline;fill:#d9d9d9;fill-opacity:1;fill-rule:evenodd;stroke:#202020;stroke-width:4.5;stroke-linecap:butt;stroke-linejoin:miter;stroke-miterlimit:4;stroke-dasharray:none;stroke-opacity:1" />
      <path
         sodipodi:nodetypes="czccsc"
         inkscape:connector-curvature="0"
         id="path4156"
         d="m 246.65319,596.47111 c 2.5559,0.14071 6.8782,4.69542 9.0414,6.99153 2.1632,2.29612 5.7638,7.44142 6.3796,11.97512 0.2303,2.07303 -0.7864,4.18797 -2.764,6.76359 -4.7974,5.10321 -7.6052,6.85823 -10.2483,3.13223 -5.1706,-7.28902 -6.9484,-28.14758 -2.4087,-28.86247 z"
         style="display:inline;fill:#d9d9d9;fill-opacity:1;fill-rule:evenodd;stroke:#202020;stroke-width:4.5;stroke-linecap:butt;stroke-linejoin:miter;stroke-miterlimit:4;stroke-dasharray:none;stroke-opacity:1" />
      <path
         sodipodi:nodetypes="csccsscc"
         inkscape:connector-curvature="0"
         id="path4158"
         d="m 280.04049,611.6328 c 2.3033,2.07303 2.764,3.91572 2.9943,6.67976 0.2304,2.76404 0.4607,4.83707 0.2304,8.29212 -0.3946,6.17186 -0.5842,11.61325 -6.0563,9.06697 -3.4229,-3.05338 -5.3769,-6.38725 -5.9212,-8.14562 -0.6204,-2.00418 -1.5868,-4.79755 -1.5868,-7.79193 0,-2.99437 0.4491,-7.29173 1.6007,-9.13442 1.0186,-4.48829 6.0687,-1.3598 8.7389,1.03312 z"
         style="display:inline;fill:#d9d9d9;fill-opacity:1;fill-rule:evenodd;stroke:#000000;stroke-width:4.5;stroke-linecap:butt;stroke-linejoin:miter;stroke-miterlimit:4;stroke-dasharray:none;stroke-opacity:1" />
      <path
         sodipodi:nodetypes="zscccz"
         inkscape:connector-curvature="0"
         id="path4160"
         d="m 263.71129,641.73716 c 2.6788,2.00685 6.7684,4.49057 7.4734,7.18714 0.6514,2.49151 0.2024,3.49698 0.2024,7.64304 -1.8398,17.64797 -4.858,24.83851 -11.9775,7.14043 -3.4883,-8.82175 -6.0931,-15.27966 -7.1404,-22.57299 -1.5962,-9.05694 8.7634,-1.40447 11.4421,0.60238 z"
         style="display:inline;fill:#d9d9d9;fill-opacity:1;fill-rule:evenodd;stroke:#000000;stroke-width:4.5;stroke-linecap:butt;stroke-linejoin:miter;stroke-miterlimit:4;stroke-dasharray:none;stroke-opacity:1" />
      <path
         inkscape:transform-center-y="-1.6201419"
         inkscape:transform-center-x="-4.0462634"
         sodipodi:nodetypes="czcccc"
         inkscape:connector-curvature="0"
         id="path4162"
         d="m 280.38739,674.64697 c 8.7759,9.57474 12.6904,15.73403 15.7498,24.25552 3.0595,8.52149 3.7833,17.0806 0.9468,17.88832 -3.3571,0.81707 -6.4178,-0.89687 -9.1401,-3.31607 -6.597,-5.93515 -9.436,-14.37791 -11.6012,-22.6356 -3.1716,-14.11565 -6.8102,-28.2411 4.0447,-16.19217 z"
         style="display:inline;fill:#d9d9d9;fill-opacity:1;fill-rule:evenodd;stroke:#000000;stroke-width:4.5;stroke-linecap:butt;stroke-linejoin:miter;stroke-miterlimit:4;stroke-dasharray:none;stroke-opacity:1" />
      <path
         sodipodi:nodetypes="ccscccc"
         inkscape:connector-curvature="0"
         id="path4164"
         d="m 292.20699,643.61925 c 9.8761,5.7926 16.6216,11.49427 12.1871,23.17101 -1.0563,1.80077 -1.5566,3.27816 -4.6067,6.67976 -4.5934,5.12265 -6.3006,3.5784 -7.2219,0.35369 -3.7351,-8.17972 -3.4896,-10.41281 -6.7169,-17.76106 -1.3609,-4.64066 -2.2379,-8.45849 -3.4179,-13.79507 -0.4713,-4.8183 5.6713,-0.75062 9.7763,1.35167 z"
         style="display:inline;fill:#d9d9d9;fill-opacity:1;fill-rule:evenodd;stroke:#000000;stroke-width:4.5;stroke-linecap:butt;stroke-linejoin:miter;stroke-miterlimit:4;stroke-dasharray:none;stroke-opacity:1" />
      <path
         sodipodi:nodetypes="csssczc"
         inkscape:connector-curvature="0"
         id="path4166"
         d="m 322.96359,682.68223 c -5.0674,0.23033 -7.356,0.25059 -8.7554,0.31872 -2.5311,0.12322 -4.9228,0.47678 -7.2262,-0.67491 -2.3034,-1.15168 -2.7801,-3.68538 -1.6284,-5.75841 1.1516,-2.07303 2.4078,-4.71123 4.0202,-6.78426 4.8693,-6.27508 12.1589,-2.02876 18.7229,3.86156 6.564,5.89031 7.7603,8.6406 -5.1331,9.0373 z"
         style="display:inline;fill:#d9d9d9;fill-opacity:1;fill-rule:evenodd;stroke:#000000;stroke-width:4.5;stroke-linecap:butt;stroke-linejoin:miter;stroke-miterlimit:4;stroke-dasharray:none;stroke-opacity:1" />
      <path
         sodipodi:nodetypes="czcccc"
         inkscape:connector-curvature="0"
         id="path4168"
         d="m 323.95189,698.42829 c 6.4774,3.80744 11.2739,12.45137 12.0623,20.76054 0.7885,8.30914 0.099,16.43706 -1.3772,23.02557 -2.5446,6.69153 -13.089,-8.11429 -14.4519,-10.24332 -7.2007,-11.30893 -19.4066,-34.84249 -16.7806,-39.49229 3.622,-2.36017 14.07,2.14208 20.5474,5.9495 z"
         style="display:inline;fill:#d9d9d9;fill-opacity:1;fill-rule:evenodd;stroke:#000000;stroke-width:4.5;stroke-linecap:butt;stroke-linejoin:miter;stroke-miterlimit:4;stroke-dasharray:none;stroke-opacity:1" />
    </g>
  </g>
</svg>
