<?xml version="1.0" encoding="UTF-8" standalone="no"?>
<!-- Created with Inkscape (http://www.inkscape.org/) -->

<svg
   xmlns:osb="http://www.openswatchbook.org/uri/2009/osb"
   xmlns:dc="http://purl.org/dc/elements/1.1/"
   xmlns:cc="http://creativecommons.org/ns#"
   xmlns:rdf="http://www.w3.org/1999/02/22-rdf-syntax-ns#"
   xmlns:svg="http://www.w3.org/2000/svg"
   xmlns="http://www.w3.org/2000/svg"
   xmlns:sodipodi="http://sodipodi.sourceforge.net/DTD/sodipodi-0.dtd"
   xmlns:inkscape="http://www.inkscape.org/namespaces/inkscape"
   width="45"
   height="45"
   viewBox="-3 0 537 516"
   id="svg2"
   version="1.1"
   inkscape:version="0.91 r13725"
   sodipodi:docname="GS.svg">
  <defs
     id="defs4">
    <linearGradient
       id="linearGradient4351"
       osb:paint="solid">
      <stop
         style="stop-color:#000000;stop-opacity:1;"
         offset="0"
         id="stop4353" />
    </linearGradient>
  </defs>
  <sodipodi:namedview
     id="base"
     pagecolor="#666666"
     bordercolor="#000000"
     borderopacity="1"
     inkscape:pageopacity="1"
     inkscape:pageshadow="2"
     inkscape:zoom="1"
     inkscape:cx="152.5"
     inkscape:cy="253.23495"
     inkscape:document-units="px"
     inkscape:current-layer="layer1-2"
     showgrid="false"
     borderlayer="true"
     inkscape:showpageshadow="true"
     inkscape:window-width="1920"
     inkscape:window-height="1017"
     inkscape:window-x="-8"
     inkscape:window-y="-8"
     inkscape:window-maximized="1"
     units="px">
    <inkscape:grid
       type="xygrid"
       id="grid3489" />
  </sodipodi:namedview>
  <metadata
     id="metadata7">
    <rdf:RDF>
      <cc:Work
         rdf:about="">
        <dc:format>image/svg+xml</dc:format>
        <dc:type
           rdf:resource="http://purl.org/dc/dcmitype/StillImage" />
        <dc:title />
      </cc:Work>
    </rdf:RDF>
  </metadata>
  <g
     inkscape:label="Layer 1"
     inkscape:groupmode="layer"
     id="layer1"
     transform="translate(0,-536.88937)">
    <text
       xml:space="preserve"
       style="font-style:normal;font-weight:normal;font-size:40px;line-height:125%;font-family:sans-serif;letter-spacing:0px;word-spacing:0px;fill:#000000;fill-opacity:1;stroke:none;stroke-width:1px;stroke-linecap:butt;stroke-linejoin:miter;stroke-opacity:1"
       x="168.83125"
       y="465.53238"
       id="text3416"
       sodipodi:linespacing="125%"><tspan
         sodipodi:role="line"
         id="tspan3418"
         x="168.83125"
         y="465.53238" /></text>
    <g
       id="layer1-3"
       inkscape:label="Layer 1"
       transform="translate(64.945374,-2.1346825)">
      <text
         sodipodi:linespacing="125%"
         id="text3416-7"
         y="465.53238"
         x="168.83125"
         style="font-style:normal;font-weight:normal;font-size:40px;line-height:125%;font-family:sans-serif;letter-spacing:0px;word-spacing:0px;fill:#000000;fill-opacity:1;stroke:none;stroke-width:1px;stroke-linecap:butt;stroke-linejoin:miter;stroke-opacity:1"
         xml:space="preserve"><tspan
           y="465.53238"
           x="168.83125"
           id="tspan3418-8"
           sodipodi:role="line" /></text>
      <g
         id="layer1-2"
         inkscape:label="Layer 1"
         transform="translate(-7.968039,209.26349)">
        <text
           sodipodi:linespacing="125%"
           id="text3416-72"
           y="465.53238"
           x="168.83125"
           style="font-style:normal;font-weight:normal;font-size:40px;line-height:125%;font-family:sans-serif;letter-spacing:0px;word-spacing:0px;fill:#000000;fill-opacity:1;stroke:none;stroke-width:1px;stroke-linecap:butt;stroke-linejoin:miter;stroke-opacity:1"
           xml:space="preserve"><tspan
             y="465.53238"
             x="168.83125"
             id="tspan3418-6"
             sodipodi:role="line" /></text>
        <ellipse
           ry="234.75697"
           rx="243.05226"
           cy="587.49689"
           cx="209.05463"
           id="path3464-4"
           style="opacity:1;fill:none;stroke:#ffffff;stroke-width:35;stroke-miterlimit:4;stroke-dasharray:none;stroke-opacity:1" />
        <path
           sodipodi:nodetypes="ccccccccccccccsccccssccccscssscsssscccccscccscscssscccccscccccccccccccccccccscccccsccccccsccccsccssccssccccccccccccs"
           inkscape:connector-curvature="0"
           id="path4387"
           d="m 175.13355,757.47131 c -4.29795,-0.49499 -5.53409,-0.64037 -10.00819,-1.42509 -9.09547,-1.37856 -17.94342,-3.74657 -25.60937,-6.90496 -4.74368,-2.08189 -8.91265,-4.48479 -12.68798,-6.95109 -5.63841,-3.71233 -17.97011,-16.15585 -19.32453,-19.41191 -4.1314,-7.03214 -6.31485,-14.93299 -6.48968,-22.20797 0.40646,-4.06117 1.671,-11.08614 2.77336,-13.38244 0.49329,-0.89603 2.42267,-5.39713 4.28747,-9.39631 1.86667,-3.55263 5.4826,-7.85913 6.62384,-9.70989 0,-1.25449 6.65227,-8.165 10.53781,-11.37524 2.85863,-2.31655 5.4817,-3.87658 7.76571,-5.47484 4.35676,-3.0419 10.17043,-6.4056 13.33297,-7.53028 9.66599,-4.24955 23.16861,-8.56022 33.06383,-10.07857 6.99056,-1.2391 12.11627,-1.5586 18.25217,-2.01196 6.19228,0 11.25868,-0.35931 11.25868,-0.79848 0,-0.43915 -2.15405,-2.78269 -4.78678,-5.20785 -4.80562,-5.65293 -7.51487,-11.42746 -8.24536,-19.15413 7.6e-4,-4.86511 2.68511,-7.95276 2.71168,-11.28613 l 0,-3.60875 -13.06028,-0.55856 c -7.18315,-0.30722 -13.73314,-1.23552 -14.77705,-1.50025 -2.0423,-0.51791 -6.00302,-1.02603 -8.36045,-2.18031 -3.66908,-1.37111 -7.66923,-3.50008 -12.84903,-7.30791 -1.49969,0 -10.86691,-9.45265 -14.75248,-14.75354 -4.51281,-5.98407 -7.80499,-13.17254 -9.50026,-20.01807 -0.45455,-0.28953 -1.1417,-5.56705 -1.52701,-11.72781 l -0.70055,-11.2014 -32.6033,-0.24671 c -17.93182,-0.1357 -32.603317,-0.41167 -32.603317,-0.61328 0,-0.2016 21.361587,-21.72839 47.470207,-47.83731 l 47.4702,-47.47076 95.97783,0 c 109.25422,0 100.87031,-0.73487 92.06555,8.0699 -2.7859,2.78589 -5.32592,5.06525 -5.64448,5.06525 -0.31858,0 -1.84217,1.12529 -3.38578,2.50066 l -2.80655,2.50064 0,10.94853 0,10.94853 2.81469,2.50788 c 1.98723,1.78663 3.85677,4.66169 4.04952,6.94846 0.42136,5.11533 0.64159,22.11969 0.64159,49.96199 0,33.7761 -0.52091,49.41595 -0.93822,51.60238 -2.61114,7.85213 -2.07668,6.77154 -5.79523,9.07257 -2.92193,0.94465 -6.07511,1.31094 -8.03012,0.88772 -2.04789,-0.46917 -4.83894,-2.11091 -5.9296,-3.85444 -0.80892,-1.29314 -0.57084,-1.60497 -1.11363,-2.56315 -0.5417,-1.28195 -1.05025,-16.79289 -0.71059,-54.90248 l 0.46911,-52.6341 2.11101,-2.42724 c 1.6843,-1.93662 2.11101,-3.56368 2.11101,-8.04946 0,-3.88255 -0.36289,-5.61626 -1.17278,-5.60296 -1.87006,0.0307 -41.54116,40.37562 -40.40754,41.09386 1.66612,4.28181 3.6047,9.60699 4.05132,13.82841 1.01618,8.92179 1.19843,9.81445 0.36612,16.08506 -0.37673,3.69077 -1.0364,5.8304 -1.8953,8.76959 -0.45037,1.69564 -1.07537,3.51823 -1.59889,4.95129 -0.65579,1.78602 -1.57447,3.93491 -2.50054,5.79123 -0.94541,1.89509 -1.60533,3.85053 -2.29672,5.05709 -1.35304,2.4074 -2.99039,4.79544 -4.45091,6.65441 -2.97771,3.60003 -11.2357,11.83255 -15.84995,15.84948 -2.83387,2.59887 -6.49397,4.6373 -9.13496,6.84211 -1.05923,0.95309 -2.05937,2.07205 -2.58939,2.96309 -0.87318,1.19653 -1.63624,2.25742 -2.08622,3.55136 -0.7069,2.17806 -0.79201,8.13098 -0.22725,11.13872 2.85603,5.99426 7.5627,12.34543 11.72636,16.63441 3.77118,2.93489 7.45954,6.2277 10.96655,8.92223 1.87848,1.39909 5.13668,4.15486 6.70168,5.71987 6.16137,5.35463 8.32139,7.98355 12.70264,12.39333 8.31333,7.89298 10.09603,14.11755 12.44287,21.60094 0.44257,0.27352 1.41427,3.09636 2.03077,5.77705 3.59226,10.44624 1.0761,17.01381 -0.62562,25.58357 -1.28054,7.27262 -5.03432,13.25896 -8.99008,18.88567 0,2.24906 -12.77863,15.24342 -18.92948,19.91142 -4.92527,3.63633 -9.20456,6.57909 -12.97016,8.99881 -5.12221,3.6391 -9.09142,5.36753 -14.4606,7.7442 -7.82549,3.59414 -13.59409,5.03558 -20.25373,5.5867 -2.31428,0.33917 -9.92173,0.81703 -22.04828,0.81703 -12.12656,0 -17.58504,-0.35991 -22.04829,-0.79981 z m 53.167,-16.60337 c 2.9423,-0.75704 6.29251,-1.97091 8.94295,-3.03531 5.74438,-2.66272 10.50081,-4.92119 15.00346,-8.67035 5.05099,-3.96573 11.08404,-10.74847 13.50591,-15.54433 2.52464,-4.99938 5.67218,-10.9561 5.61193,-20.11188 -1.68078,-15.29944 -7.71758,-26.05707 -19.91544,-35.26208 -14.06536,-9.37287 -27.80399,-14.78849 -43.70106,-14.12104 -8.27071,-0.0704 -15.70986,1.41934 -22.71934,2.84707 -4.83779,0.63181 -8.23599,1.53843 -13.59799,3.68798 -2.94562,0.98532 -5.68354,2.2577 -9.06553,3.9143 -2.92933,1.15983 -7.70402,4.546 -13.50938,9.62458 -3.27042,2.861 -7.49522,9.78481 -8.8986,14.12124 -0.95746,3.04408 -1.92109,5.66645 -2.1846,8.38641 -0.28986,3.10528 -0.16519,7.66091 0.37411,9.15178 0.64909,2.63097 1.10377,7.86485 1.72308,9.91595 1.91354,7.94053 10.62518,16.18782 20.30861,23.50777 3.5659,2.69556 15.70637,9.18566 20.11427,10.67517 16.95435,3.88892 35.02998,3.76166 48.00762,0.91274 z M 214.92534,579.2041 c 1.8783,-0.10447 3.02168,-0.36872 5.91021,-1.08459 2.41066,-0.59745 4.61032,-1.3561 5.90037,-2.05153 5.20845,-2.14705 8.71494,-5.89605 10.58437,-8.51703 3.37057,-1.93773 6.41809,-11.03812 7.41372,-17.87405 2.57908,-17.70788 0.0362,-38.85594 -6.36786,-52.96161 -0.51036,-1.12411 -0.98242,-2.23383 -1.36083,-3.1848 -1.06424,-2.63302 -2.5398,-4.74551 -3.77429,-6.76194 C 229.92502,481.7283 220,472.3622 216.87658,470.23608 c -3.21518,-1.8177 -5.85833,-3.64704 -9.50435,-4.58008 -6.30437,-1.53953 -19.22622,-2.5595 -23.35738,-1.6333 -4.34582,0.99321 -8.66008,3.53087 -11.433,5.63738 -4.06027,3.12916 -6.32373,5.41754 -7.16842,7.00911 -3.30851,4.26976 -4.75974,9.11841 -5.52603,13.12972 -1.24268,1.24356 -1.60608,21.69999 -0.98658,31.67469 0.78496,7.4938 2.28847,20.12136 5.70569,26.63871 6.00936,10.62663 11.72257,18.18842 21.50232,26.20962 4.9456,3.0107 5.77349,2.96767 12.48035,4.74354 1.81856,1.07587 15.09794,0.2075 16.33616,0.13863 z"
           style="opacity:1;fill:#ffffff;fill-opacity:1;stroke:#ffffff;stroke-width:0;stroke-miterlimit:4;stroke-dasharray:none;stroke-opacity:1" />
      </g>
    </g>
  </g>
</svg>
