<?xml version="1.0" encoding="UTF-8" standalone="no"?>
<!-- Created with Inkscape (http://www.inkscape.org/) -->

<svg
   xmlns:osb="http://www.openswatchbook.org/uri/2009/osb"
   xmlns:dc="http://purl.org/dc/elements/1.1/"
   xmlns:cc="http://creativecommons.org/ns#"
   xmlns:rdf="http://www.w3.org/1999/02/22-rdf-syntax-ns#"
   xmlns:svg="http://www.w3.org/2000/svg"
   xmlns="http://www.w3.org/2000/svg"
   xmlns:sodipodi="http://sodipodi.sourceforge.net/DTD/sodipodi-0.dtd"
   xmlns:inkscape="http://www.inkscape.org/namespaces/inkscape"
   width="45"
   height="45"
   viewBox="-3 0 537 516"
   id="svg2"
   version="1.1"
   inkscape:version="0.91 r13725"
   sodipodi:docname="mail.svg">
  <defs
     id="defs4">
    <linearGradient
       id="linearGradient4351"
       osb:paint="solid">
      <stop
         style="stop-color:#000000;stop-opacity:1;"
         offset="0"
         id="stop4353" />
    </linearGradient>
  </defs>
  <sodipodi:namedview
     id="base"
     pagecolor="#666666"
     bordercolor="#000000"
     borderopacity="1"
     inkscape:pageopacity="1"
     inkscape:pageshadow="2"
     inkscape:zoom="1"
     inkscape:cx="26.96804"
     inkscape:cy="253.23495"
     inkscape:document-units="px"
     inkscape:current-layer="layer1-7"
     showgrid="false"
     borderlayer="true"
     inkscape:showpageshadow="true"
     inkscape:window-width="1920"
     inkscape:window-height="1017"
     inkscape:window-x="-8"
     inkscape:window-y="-8"
     inkscape:window-maximized="1"
     units="px">
    <inkscape:grid
       type="xygrid"
       id="grid3489" />
  </sodipodi:namedview>
  <metadata
     id="metadata7">
    <rdf:RDF>
      <cc:Work
         rdf:about="">
        <dc:format>image/svg+xml</dc:format>
        <dc:type
           rdf:resource="http://purl.org/dc/dcmitype/StillImage" />
        <dc:title />
      </cc:Work>
    </rdf:RDF>
  </metadata>
  <g
     inkscape:label="Layer 1"
     inkscape:groupmode="layer"
     id="layer1"
     transform="translate(0,-536.88937)">
    <text
       xml:space="preserve"
       style="font-style:normal;font-weight:normal;font-size:40px;line-height:125%;font-family:sans-serif;letter-spacing:0px;word-spacing:0px;fill:#000000;fill-opacity:1;stroke:none;stroke-width:1px;stroke-linecap:butt;stroke-linejoin:miter;stroke-opacity:1"
       x="168.83125"
       y="465.53238"
       id="text3416"
       sodipodi:linespacing="125%"><tspan
         sodipodi:role="line"
         id="tspan3418"
         x="168.83125"
         y="465.53238" /></text>
    <g
       id="layer1-3"
       inkscape:label="Layer 1"
       transform="translate(64.945374,-2.1346825)">
      <text
         sodipodi:linespacing="125%"
         id="text3416-7"
         y="465.53238"
         x="168.83125"
         style="font-style:normal;font-weight:normal;font-size:40px;line-height:125%;font-family:sans-serif;letter-spacing:0px;word-spacing:0px;fill:#000000;fill-opacity:1;stroke:none;stroke-width:1px;stroke-linecap:butt;stroke-linejoin:miter;stroke-opacity:1"
         xml:space="preserve"><tspan
           y="465.53238"
           x="168.83125"
           id="tspan3418-8"
           sodipodi:role="line" /></text>
      <g
         id="layer1-8"
         inkscape:label="Layer 1"
         transform="translate(-183.91341,499.3982)">
        <text
           sodipodi:linespacing="125%"
           id="text3416-9"
           y="465.53238"
           x="168.83125"
           style="font-style:normal;font-weight:normal;font-size:40px;line-height:125%;font-family:sans-serif;letter-spacing:0px;word-spacing:0px;fill:#000000;fill-opacity:1;stroke:none;stroke-width:1px;stroke-linecap:butt;stroke-linejoin:miter;stroke-opacity:1"
           xml:space="preserve"><tspan
             y="465.53238"
             x="168.83125"
             id="tspan3418-803"
             sodipodi:role="line" /></text>
        <g
           transform="translate(64.945374,-2.1346825)"
           inkscape:label="Layer 1"
           id="layer1-3-7">
          <text
             xml:space="preserve"
             style="font-style:normal;font-weight:normal;font-size:40px;line-height:125%;font-family:sans-serif;letter-spacing:0px;word-spacing:0px;fill:#000000;fill-opacity:1;stroke:none;stroke-width:1px;stroke-linecap:butt;stroke-linejoin:miter;stroke-opacity:1"
             x="168.83125"
             y="465.53238"
             id="text3416-7-5"
             sodipodi:linespacing="125%"><tspan
               sodipodi:role="line"
               id="tspan3418-8-5"
               x="168.83125"
               y="465.53238" /></text>
          <g
             transform="translate(111,-288)"
             inkscape:label="Layer 1"
             id="layer1-7">
            <text
               xml:space="preserve"
               style="font-style:normal;font-weight:normal;font-size:40px;line-height:125%;font-family:sans-serif;letter-spacing:0px;word-spacing:0px;fill:#000000;fill-opacity:1;stroke:none;stroke-width:1px;stroke-linecap:butt;stroke-linejoin:miter;stroke-opacity:1"
               x="168.83125"
               y="465.53238"
               id="text3416-3"
               sodipodi:linespacing="125%"><tspan
                 sodipodi:role="line"
                 id="tspan3418-80"
                 x="168.83125"
                 y="465.53238" /></text>
            <ellipse
               style="opacity:1;fill:none;stroke:#ffffff;stroke-width:37.58999987;stroke-miterlimit:4;stroke-dasharray:none;stroke-opacity:1"
               id="path3464-4"
               cx="209.05463"
               cy="587.49689"
               rx="243.05226"
               ry="234.75697" />
            <path
               style="opacity:1;fill:#ffffff;fill-opacity:1;stroke:#ffffff;stroke-width:7.51799997;stroke-miterlimit:4;stroke-dasharray:none;stroke-opacity:1"
               d="m 37.810213,697.14079 c -1.453875,-1.12992 -2.342368,-3.5501 -2.667205,-5.6851 -1.60946,-4.61689 -0.774481,-203.76804 -0.252019,-208.24793 0.900479,-7.72123 5.071865,-8.53806 10.116176,-9.34884 2.095485,-0.33681 72.306665,-0.38558 164.688265,-0.38558 95.99317,0 138.91914,-0.34092 156.74643,0.47692 11.05446,-0.0523 14.97157,-1.25122 15.79491,10.38936 0.73948,7.93918 0.6273,31.92691 0.6273,102.76983 l 0,104.23547 c 0.0818,6.88811 -1.22605,7.42409 -8.57976,8.3779 l -165.92305,0 c -118.497831,0 -151.946049,0.45064 -163.224583,0.0495 -3.417038,-0.2754 -5.112228,-1.08037 -7.326464,-2.63148 z M 309.23285,651.07415 c -11.24399,-8.06735 -24.67424,-18.41448 -37.37385,-27.09397 -7.56744,-5.79431 -20.89956,-15.74771 -27.45945,-20.77446 -8.05153,-5.25419 -11.00356,-6.04806 -17.03692,-1.05299 -3.94675,3.33006 -6.98196,6.45784 -10.44526,9.95392 -4.35909,4.43995 -12.77209,5.02366 -17.18316,1.77359 -3.68429,-2.46195 -7.04593,-5.51593 -10.31344,-8.09283 -2.51668,-2.21125 -5.49771,-4.55381 -5.99527,-5.33155 -1.35989,-2.12564 -4.64997,-1.16315 -6.38478,0.72945 -4.82918,3.83653 -10.90381,7.83424 -15.77162,11.44952 -9.17399,6.76514 -17.5448,13.41565 -27.15512,19.77911 -10.15754,7.74746 -16.47867,12.02265 -27.82596,20.2604 -10.563626,7.87175 -22.58658,16.85764 -32.585045,24.43704 -0.751477,0.62961 -3.402566,2.65978 -5.89131,4.51148 -6.434513,4.78747 -7.353109,5.6248 -7.353109,6.70253 0,1.23977 48.042494,-0.58441 153.257414,0.29131 46.60064,0.38786 102.65249,0.008 107.09559,-0.01 21.92496,-0.7102 35.00538,0.57595 42.08355,0.70218 5.43471,0.0969 0.49414,-4.66216 -2.58169,-6.23198 -20.98134,-12.81074 -25.81677,-15.61893 -51.08057,-32.00275 z m 58.925,-65.04169 c 0,-50.08598 -0.28799,-91.06542 -0.63999,-91.06542 -9.67616,3.40691 -15.87035,11.49418 -24.84482,17.9086 -9.33614,7.32281 -16.47983,12.1463 -25.99694,19.96058 -16.63134,12.60122 -32.81576,25.78343 -46.38223,36.22436 -4.00109,3.12832 -6.56452,5.1209 -10.4387,8.20471 -3.15019,2.57479 -6.75035,4.77558 -9.3203,7.016 l -5.06388,4.43535 2.48942,2.05165 c 1.3692,1.12841 4.157,3.22696 6.19513,4.66344 9.92843,6.99763 17.16294,12.30769 25.76502,18.91134 12.20427,9.16094 26.18508,18.37015 35.63429,25.707 1.86656,1.45297 4.66639,3.52768 6.22186,4.61049 5.79297,4.03266 10.81392,7.62086 13.00934,9.29705 1.24437,0.95007 4.55328,3.48598 7.35311,5.63536 7.58556,5.22509 15.19409,10.04741 20.92808,14.71185 1.86655,1.52999 3.77554,2.78434 4.24217,2.78743 0.46665,0.004 0.84844,-40.97382 0.84844,-91.05979 z m -313.299353,87.077 c 4.467152,-3.02266 7.459333,-5.20343 10.764554,-7.88968 6.546901,-4.66636 13.292559,-9.7531 19.186896,-14.16355 6.392987,-4.55925 13.147953,-9.95198 18.997583,-14.0355 11.63909,-9.11679 23.14578,-18.102 34.42429,-25.66604 6.6602,-4.58485 10.63522,-7.6566 17.78894,-12.49223 4.503,-3.80721 7.64459,-4.2704 10.68625,-8.0506 1.16432,-2.17556 -0.0702,-2.78056 -3.4736,-5.83557 -2.1254,-1.90785 -5.6137,-4.74147 -7.75179,-6.29694 -10.20769,-8.4807 -17.57286,-13.85089 -29.5434,-23.98083 -7.16222,-5.32054 -13.87743,-10.24 -19.25212,-14.76079 C 99.05301,534.43334 91.999093,527.78694 81.279708,519.7884 72.695937,512.87351 60.823651,499.77163 52.822636,497.64778 l -2.545306,-0.68212 0,88.93486 c 0,48.91418 0.279814,88.93486 0.621801,88.93486 0.341999,0 2.123714,-0.77667 3.959366,-1.72592 z M 219.00247,595.07847 c 15.36737,-13.94106 27.71167,-26.35297 43.84408,-39.02407 15.13535,-11.48654 29.24061,-22.13986 40.96435,-31.5956 3.49582,-2.84347 7.98878,-6.44259 9.98439,-7.99806 6.82399,-5.52899 14.01435,-10.35019 20.08612,-15.07749 5.15589,-4.08121 9.95463,-6.45866 12.78274,-11.02172 0,-1.1389 -20.05834,-1.27319 -100.3025,-0.67154 -55.16638,0.41364 -117.52639,0.75206 -138.57781,0.75206 -24.762701,0 -38.275304,0.39937 -38.275304,1.13125 0,0.62218 0.491108,1.13124 1.091348,1.13124 0.600229,0 2.254678,1.05207 3.676554,2.33792 4.832361,4.37012 17.544177,14.6308 18.125876,14.6308 10.794326,9.36299 23.535846,18.54622 32.432266,25.71635 6.77606,4.80153 11.05912,9.16071 16.50817,13.39309 9.27708,7.51001 19.96446,16.26428 28.26251,22.61653 5.56853,4.55847 10.11534,7.78973 16.10973,12.65354 5.54821,3.88463 8.49254,7.32985 14.45263,11.46432 7.95082,5.25334 15.21699,1.99448 18.83485,-0.43862 z"
               id="path4400"
               inkscape:connector-curvature="0"
               sodipodi:nodetypes="ccsssccsccscccccccccscccccsssscsccccccccssccsscccscccccccsccccccsscccccccsssssccccccccc" />
          </g>
        </g>
      </g>
    </g>
  </g>
</svg>
