<?xml version="1.0" encoding="UTF-8" standalone="no"?>
<!-- Created with Inkscape (http://www.inkscape.org/) -->

<svg
   xmlns:osb="http://www.openswatchbook.org/uri/2009/osb"
   xmlns:dc="http://purl.org/dc/elements/1.1/"
   xmlns:cc="http://creativecommons.org/ns#"
   xmlns:rdf="http://www.w3.org/1999/02/22-rdf-syntax-ns#"
   xmlns:svg="http://www.w3.org/2000/svg"
   xmlns="http://www.w3.org/2000/svg"
   xmlns:sodipodi="http://sodipodi.sourceforge.net/DTD/sodipodi-0.dtd"
   xmlns:inkscape="http://www.inkscape.org/namespaces/inkscape"
   width="45"
   height="45"
   viewBox="-3 0 537 516"
   id="svg2"
   version="1.1"
   inkscape:version="0.91 r13725"
   sodipodi:docname="rg.svg">
  <defs
     id="defs4">
    <linearGradient
       id="linearGradient4351"
       osb:paint="solid">
      <stop
         style="stop-color:#000000;stop-opacity:1;"
         offset="0"
         id="stop4353" />
    </linearGradient>
  </defs>
  <sodipodi:namedview
     id="base"
     pagecolor="#666666"
     bordercolor="#000000"
     borderopacity="1"
     inkscape:pageopacity="1"
     inkscape:pageshadow="2"
     inkscape:zoom="1"
     inkscape:cx="26.96804"
     inkscape:cy="253.23495"
     inkscape:document-units="px"
     inkscape:current-layer="layer1-3-5"
     showgrid="false"
     borderlayer="true"
     inkscape:showpageshadow="true"
     inkscape:window-width="1920"
     inkscape:window-height="1017"
     inkscape:window-x="-8"
     inkscape:window-y="-8"
     inkscape:window-maximized="1"
     units="px">
    <inkscape:grid
       type="xygrid"
       id="grid3489" />
  </sodipodi:namedview>
  <metadata
     id="metadata7">
    <rdf:RDF>
      <cc:Work
         rdf:about="">
        <dc:format>image/svg+xml</dc:format>
        <dc:type
           rdf:resource="http://purl.org/dc/dcmitype/StillImage" />
        <dc:title />
      </cc:Work>
    </rdf:RDF>
  </metadata>
  <g
     inkscape:label="Layer 1"
     inkscape:groupmode="layer"
     id="layer1"
     transform="translate(0,-536.88937)">
    <text
       xml:space="preserve"
       style="font-style:normal;font-weight:normal;font-size:40px;line-height:125%;font-family:sans-serif;letter-spacing:0px;word-spacing:0px;fill:#000000;fill-opacity:1;stroke:none;stroke-width:1px;stroke-linecap:butt;stroke-linejoin:miter;stroke-opacity:1"
       x="168.83125"
       y="465.53238"
       id="text3416"
       sodipodi:linespacing="125%"><tspan
         sodipodi:role="line"
         id="tspan3418"
         x="168.83125"
         y="465.53238" /></text>
    <g
       id="layer1-3"
       inkscape:label="Layer 1"
       transform="translate(64.945374,-2.1346825)">
      <text
         sodipodi:linespacing="125%"
         id="text3416-7"
         y="465.53238"
         x="168.83125"
         style="font-style:normal;font-weight:normal;font-size:40px;line-height:125%;font-family:sans-serif;letter-spacing:0px;word-spacing:0px;fill:#000000;fill-opacity:1;stroke:none;stroke-width:1px;stroke-linecap:butt;stroke-linejoin:miter;stroke-opacity:1"
         xml:space="preserve"><tspan
           y="465.53238"
           x="168.83125"
           id="tspan3418-8"
           sodipodi:role="line" /></text>
      <g
         id="layer1-8"
         inkscape:label="Layer 1"
         transform="translate(-183.91341,499.3982)">
        <text
           sodipodi:linespacing="125%"
           id="text3416-9"
           y="465.53238"
           x="168.83125"
           style="font-style:normal;font-weight:normal;font-size:40px;line-height:125%;font-family:sans-serif;letter-spacing:0px;word-spacing:0px;fill:#000000;fill-opacity:1;stroke:none;stroke-width:1px;stroke-linecap:butt;stroke-linejoin:miter;stroke-opacity:1"
           xml:space="preserve"><tspan
             y="465.53238"
             x="168.83125"
             id="tspan3418-803"
             sodipodi:role="line" /></text>
        <g
           id="layer1-9"
           inkscape:label="Layer 1"
           transform="translate(111,-288)">
          <text
             sodipodi:linespacing="125%"
             id="text3416-0"
             y="465.53238"
             x="168.83125"
             style="font-style:normal;font-weight:normal;font-size:40px;line-height:125%;font-family:sans-serif;letter-spacing:0px;word-spacing:0px;fill:#000000;fill-opacity:1;stroke:none;stroke-width:1px;stroke-linecap:butt;stroke-linejoin:miter;stroke-opacity:1"
             xml:space="preserve"><tspan
               y="465.53238"
               x="168.83125"
               id="tspan3418-89"
               sodipodi:role="line" /></text>
          <g
             transform="translate(64.945374,-2.1346825)"
             inkscape:label="Layer 1"
             id="layer1-3-5">
            <text
               xml:space="preserve"
               style="font-style:normal;font-weight:normal;font-size:40px;line-height:125%;font-family:sans-serif;letter-spacing:0px;word-spacing:0px;fill:#000000;fill-opacity:1;stroke:none;stroke-width:1px;stroke-linecap:butt;stroke-linejoin:miter;stroke-opacity:1"
               x="168.83125"
               y="465.53238"
               id="text3416-7-4"
               sodipodi:linespacing="125%"><tspan
                 sodipodi:role="line"
                 id="tspan3418-8-6"
                 x="168.83125"
                 y="465.53238" /></text>
            <ellipse
               style="opacity:1;fill:none;stroke:#ffffff;stroke-width:37.58999987;stroke-miterlimit:4;stroke-dasharray:none;stroke-opacity:1"
               id="path3464"
               cx="209.05463"
               cy="587.49689"
               rx="243.05226"
               ry="234.75697" />
            <g
               transform="matrix(1.0549053,0,0,1.3462186,814.88927,23.123397)"
               style="font-style:normal;font-variant:normal;font-weight:normal;font-stretch:normal;font-size:271.47909546px;line-height:125%;font-family:'Britannic Bold';-inkscape-font-specification:'Britannic Bold, ';letter-spacing:0px;word-spacing:0px;fill:#000000;fill-opacity:1;stroke:none;stroke-width:1px;stroke-linecap:butt;stroke-linejoin:miter;stroke-opacity:1"
               id="text4421">
              <path
                 d="m -724.87241,505.84473 -0.512,-184.62139 82.93163,0 c 23.97698,0 33.49309,0.51204 48.43659,8.26646 15.33595,11.59723 21.31216,17.11637 19.77616,40.83586 -1.41733,21.88704 -4.79871,37.41488 -27.70812,43.22512 13.34419,4.94884 16.84048,10.38373 20.72885,16.30466 3.97675,5.92093 3.60011,17.81813 5.01406,34.87395 1.67907,20.32558 3.54539,32.94047 8.67097,39.48 l -54.44,-0.40883 c -2.24545,-4.15176 -3.30841,-6.85212 -4.29256,-13.90001 l -1.21061,-15.20451 -0.22648,-18.20806 c 0.19683,-19.59846 -12.12213,-26.10405 -25.03028,-26.2485 l -19.64518,-0.21984 -1.024,74.59859 z m 51.46903,-106.43441 15.72465,-0.40883 c 11.16921,-0.10786 32.49467,-2.41746 32.38558,-22.15678 -0.11138,-20.15381 -14.03786,-25.42748 -31.36159,-25.42748 l -16.23664,0 z"
                 id="path4430"
                 inkscape:connector-curvature="0"
                 sodipodi:nodetypes="ccscsccccccccscccccsscc"
                 style="fill:#ffffff" />
            </g>
            <g
               transform="matrix(1.1034744,0,0,1.3001737,619.09905,33.797375)"
               style="font-style:normal;font-variant:normal;font-weight:normal;font-stretch:normal;font-size:232.33560181px;line-height:125%;font-family:'Tw Cen MT Condensed Extra Bold';-inkscape-font-specification:'Tw Cen MT Condensed Extra Bold, ';letter-spacing:0px;word-spacing:0px;fill:#000000;fill-opacity:1;stroke:none;stroke-width:1px;stroke-linecap:butt;stroke-linejoin:miter;stroke-opacity:1"
               id="text4432">
              <path
                 d="m -220.05199,386.10539 -44.32352,0.82335 c -2.8082,-15.08547 0.98731,-28.50989 -26.30602,-30.59781 -16.21249,1.50263 -20.32548,13.69756 -22.57145,20.61459 -1.5571,16.64392 -1.24499,35.7651 -0.88522,48.70038 0.66452,23.89219 1.10961,34.02279 5.35263,49.62416 5.33579,9.2593 10.59931,13.56699 23.21568,10.82595 22.15438,-4.81328 18.815,-11.01714 19.46172,-42.81419 l -26.54991,-0.0681 -0.79831,-31.16494 77.93431,0.43757 -1.0119,103.2674 -39.08803,0.43757 -0.2001,-10.25875 c -9.94747,11.79439 -13.9669,13.03721 -35.48799,15.25672 -27.02255,-1.2446 -44.66051,-0.45814 -61.07647,-20.00522 -12.17644,-16.41173 -14.21708,-54.93431 -14.21708,-82.3124 0,-31.23523 2.91451,-58.90188 19.40187,-75.84302 12.97967,-12.10623 26.1142,-20.48807 53.53672,-21.80078 19.48275,-0.93264 43.996,2.38237 56.24807,13.2731 17.80464,17.77337 15.92591,32.35914 17.365,51.60442 z"
                 style="font-style:normal;font-variant:normal;font-weight:bold;font-stretch:normal;font-family:'Yu Gothic';-inkscape-font-specification:'Yu Gothic Bold';fill:#ffffff"
                 id="path4437"
                 inkscape:connector-curvature="0"
                 sodipodi:nodetypes="ccccscscccccccccscscc" />
            </g>
          </g>
        </g>
      </g>
    </g>
  </g>
</svg>
